HIERARCHY
ROOT pelvis
{
  OFFSET 0 100 0
  CHANNELS 6 Xposition Yposition Zposition Zrotation Xrotation Yrotation
  JOINT pelvis_right_femur
  {
    OFFSET -10.78128 -3.44521 -0.5502486
    CHANNELS 3 Zrotation Xrotation Yrotation
    JOINT right_femur_tibia
    {
      OFFSET -0.8047443 -44.0398 -0.1307829
      CHANNELS 3 Zrotation Xrotation Yrotation
      JOINT right_tibia_foot
      {
        OFFSET 3.006224 -47.83518 -5
        CHANNELS 3 Zrotation Xrotation Yrotation
        End Site
        {
          OFFSET 0 -5 15
        }
      }
    }
  }
  JOINT pelvis_left_femur
  {
    OFFSET 10.78128 -3.44521 -0.5502486
    CHANNELS 3 Zrotation Xrotation Yrotation
    JOINT left_femur_tibia
    {
      OFFSET 0.8047443 -44.0398 -0.1307829
      CHANNELS 3 Zrotation Xrotation Yrotation
      JOINT left_tibia_foot
      {
        OFFSET -4.370144 -48.10324 -4.275266
        CHANNELS 3 Zrotation Xrotation Yrotation
        End Site
        {
          OFFSET 0 -5 15
        }
      }
    }
  }
  JOINT pelvis_spine1
  {
    OFFSET 0 6.468898 -3.129235
    CHANNELS 3 Zrotation Xrotation Yrotation
    JOINT spine1
    {
      OFFSET 0 23.15396 4.99043
      CHANNELS 3 Zrotation Xrotation Yrotation
      JOINT spine2
      {
        OFFSET 0 20.79997 -5.064912
        CHANNELS 3 Zrotation Xrotation Yrotation
        JOINT neck
        {
          OFFSET 0 14.38658 9.616178
          CHANNELS 3 Zrotation Xrotation Yrotation
          End Site
          {
            OFFSET 0 20 0
          }
        }
      }
      JOINT right_manubrium
      {
        OFFSET -5.722621 16.35077 3.967754
        CHANNELS 3 Zrotation Xrotation Yrotation
        JOINT right_clavicle
        {
          OFFSET -13.16364 1.694482 -4.693211
          CHANNELS 3 Zrotation Xrotation Yrotation
          JOINT right_humerus
          {
            OFFSET -28.5034 -0.3100689 -2.792744
            CHANNELS 3 Zrotation Xrotation Yrotation
            JOINT right_radius
            {
              OFFSET -25.15693 0.02248979 -1.271978
              CHANNELS 3 Zrotation Xrotation Yrotation
              End Site
              {
                OFFSET -15 0 0
              }
            }
          }
        }
      }
      JOINT left_manubrium
      {
        OFFSET 5.722621 16.35077 3.967754
        CHANNELS 3 Zrotation Xrotation Yrotation
        JOINT left_clavicle
        {
          OFFSET 13.16364 1.694482 -4.693211
          CHANNELS 3 Zrotation Xrotation Yrotation
          JOINT left_humerus
          {
            OFFSET 29.39168 -1.063119 -2.237045
            CHANNELS 3 Zrotation Xrotation Yrotation
            JOINT left_radius
            {
              OFFSET 24.59957 -0.9528479 0.9047498
              CHANNELS 3 Zrotation Xrotation Yrotation
              End Site
              {
                OFFSET 15 -0 -0
              }
            }
          }
        }
      }
    }
  }
}
MOTION
Frames: 23
Frame Time: 0.0416666666667
0 103.5113 0 1.210923 -0.5542643 -0.09608537 3.820556 -15.5646 10.64424 -0 42.15431 -0 -7.21861 -16.80312 -3.626204 -7.294543 7.642311 -22.17965 -0 6.199468 -0 16.67073 -11.79418 29.74777 -4.365328 -3.71196 4.706952 2.771464 10.86641 -7.846521 1.003927 21.84979 6.538042 3.015413 -24.67657 8.926001 7.7816 -20.31074 12.59907 84.72473 39.73641 -16.82048 -0 0 16.2882 -7.209167 8.420351 5.11625 5.109586 -19.38516 -1.865259 -92.25603 20.2857 20.52497 0 0 -11.98948 15.15273 14.30659 -3.801648
0.2644838 103.875 1.267719 1.065112 -0.6245063 -0.1768607 3.886148 -16.50796 10.20273 -0 41.30553 -0 -7.146848 -16.03299 -3.506641 -7.145291 7.796823 -21.80532 -0 5.851599 -0 15.9645 -12.4732 29.19073 -4.19326 -3.523754 4.646412 2.736287 10.83671 -7.828721 1.062641 21.83518 6.507959 2.982813 -24.70493 8.932344 7.410012 -20.31109 12.53408 84.95594 38.67627 -16.95818 -0 0 16.16674 -7.523526 8.305927 5.290358 5.287555 -19.61222 -1.922107 -92.06539 20.30993 20.2788 0 0 -12.48615 15.12109 14.41506 -3.683979
0.4472624 103.5051 4.062495 -0.4256584 -2.233893 0.05889283 3.822743 -22.73908 5.450983 -0 35.57679 -0 -6.998538 -9.168789 -3.269983 -5.527634 11.16341 -17.80413 -0 5.689083 -0 7.506592 -18.09514 22.60917 -2.584718 -1.660773 2.974646 2.792577 9.627214 -7.644259 1.455759 22.80327 6.436629 2.16438 -25.01664 9.38252 3.046808 -19.19814 11.6206 88.1186 27.54084 -18.77524 -0 0 12.10387 -10.74856 6.930004 7.188953 5.627611 -20.82936 -2.601812 -90.23475 23.41436 17.42756 0 0 -16.43936 12.00738 16.22196 0.6121929
0.6604899 102.964 7.006061 -0.6319978 -0.5244736 0.2523829 4.680952 -26.50774 5.235959 -0 27.90344 -0 -6.790997 -9.10791 -2.411784 -5.595934 11.86231 -17.87971 -0 5.017111 -0 7.044666 -19.99622 22.49697 -2.500293 -1.906107 3.603934 2.886186 9.584827 -7.921834 1.518059 21.83389 6.79339 2.782276 -25.57973 9.567387 3.427839 -19.19974 11.48184 88.02424 28.85421 -19.8377 -0 0 12.50931 -10.56418 7.947103 6.421169 7.078239 -21.97761 -1.918582 -90.37846 22.44667 17.11382 0 0 -18.62311 13.36458 16.42229 -1.061992
0.9994984 102.1248 9.837633 -0.4510634 1.896801 0.330658 5.744226 -29.93176 5.887998 -0 19.87152 -0 -6.158511 -9.473114 -1.249932 -6.124047 11.3947 -18.34047 -0 3.530208 -0 8.20689 -21.34116 23.41115 -2.773103 -2.602942 4.936823 2.928777 10.16932 -8.391366 1.463878 20.13383 7.063238 3.756955 -26.026 9.26046 4.7977 -19.77624 11.59901 87.195 31.9951 -20.64504 -0 0 14.53488 -9.739207 8.936373 5.446289 8.983343 -23.3296 -1.00238 -90.78067 19.92793 17.42284 0 0 -20.85311 15.58143 15.46459 -3.921565
1.363057 101.0156 12.98391 -0.5986307 2.800943 0.4253037 6.142 -32.32763 5.198723 -0 14.93927 -0 -6.224357 -7.941797 -0.6500504 -6.122242 12.03474 -17.40325 -0 3.623831 -0 7.391053 -22.51735 22.27547 -2.711852 -2.703541 5.102151 3.119275 10.34629 -8.744423 1.363407 19.48281 7.225251 4.110793 -26.31875 9.014908 4.718605 -19.67388 11.55689 87.47692 31.51998 -21.61193 -0 0 14.08825 -10.02846 9.018994 5.546858 9.761895 -24.29675 -0.7681464 -90.42089 19.02084 16.74288 0 0 -22.68553 16.07425 14.91871 -4.597623
1.662437 99.76484 16.79628 -0.9840865 2.838363 0.6188978 6.149434 -34.04659 3.589369 -0 11.37244 -0 -6.969874 -5.344257 -0.3251813 -5.802573 13.59525 -15.54656 -0 5.37404 -0 5.463198 -23.3051 19.85233 -2.422905 -2.518588 4.497336 3.438672 10.2739 -9.053659 1.202492 19.49142 7.402831 4.122507 -26.5389 8.864354 3.787741 -19.01846 11.42485 88.49501 29.07936 -22.83822 -0 0 11.7305 -11.10132 8.776266 6.245995 9.824463 -25.12463 -0.9885715 -89.52374 18.90705 15.24898 0 0 -24.33116 15.86575 14.69768 -4.389466
1.911398 98.51869 21.21748 -1.307308 3.173762 0.8800406 6.400335 -35.41787 2.581888 -0 7.959327 -0 -7.647875 -3.294996 0.02777896 -5.620855 14.86112 -13.99294 -0 7.663076 -0 3.994834 -23.60774 17.82377 -2.196146 -2.554658 4.112589 3.754187 10.33972 -9.425762 1.024203 19.26527 7.576396 4.241222 -26.76715 8.655621 3.2815 -18.45192 11.34155 89.22345 27.58141 -24.03072 -0 0 9.877444 -11.76825 8.685208 6.673876 9.952038 -25.91492 -1.069333 -88.85908 18.51564 14.06527 0 0 -25.77131 15.8426 14.20732 -4.444874
2.120656 97.344 26.14864 -1.607949 3.458461 1.188041 6.755151 -36.14959 2.047238 -0 5.668677 -0 -8.311196 -1.753072 0.2696416 -5.466309 15.83748 -12.73886 -0 10.43276 -0 2.823793 -23.38624 16.13126 -1.97257 -2.65999 3.785461 4.025189 10.44081 -9.749389 0.8707713 19.05208 7.708183 4.336048 -26.93962 8.475911 2.981524 -17.9254 11.28027 89.77157 26.56435 -25.01849 -0 0 8.346797 -12.19212 8.670866 6.960845 9.937576 -26.48645 -1.138615 -88.38477 18.19526 13.17092 0 0 -26.68777 15.79137 13.68982 -4.45257
2.273728 96.34429 31.54371 -1.956107 3.330428 1.523137 7.10027 -35.92501 1.755848 -0 5.080357 -0 -9.138857 -0.6578332 0.2598368 -5.201519 16.69716 -11.70591 -0 14.25311 -0 1.612284 -22.53659 14.60729 -1.662329 -2.664104 3.288677 4.220331 10.40493 -9.890686 0.794291 19.1527 7.805683 4.297028 -26.96036 8.465999 2.644151 -17.22317 11.18522 90.32355 25.62832 -25.70418 -0 0 6.648266 -12.61529 8.79057 7.203033 9.556488 -26.65746 -1.328919 -88.03079 18.37354 12.37875 0 0 -26.72834 15.48957 13.48764 -4.113446
2.364905 95.64891 37.34481 -2.312732 2.928746 1.856154 7.493439 -34.86641 1.76468 -0 5.716825 -0 -10.06692 -0.09328676 0.06321318 -4.839184 17.25631 -10.95088 -0 19.12406 -0 0.418168 -21.07063 13.30193 -1.281484 -2.594405 2.740706 4.313591 10.28947 -9.852724 0.8035073 19.44765 7.855613 4.199536 -26.78688 8.563329 2.406354 -16.3908 11.06747 90.77703 25.05253 -26.06861 -0 0 5.049338 -12.97034 9.106886 7.35019 8.942256 -26.47629 -1.582195 -87.84514 18.86327 11.7502 0 0 -25.95832 15.02799 13.49382 -3.568772
2.402943 95.36602 43.45113 -2.637962 2.395983 2.152306 7.943196 -33.05392 2.122159 -0 7.286914 -0 -10.99062 -0.169696 -0.2634754 -4.386795 17.25578 -10.5631 -0 24.88239 -0 -0.7605272 -19.00518 12.22157 -0.8412512 -2.461182 2.267875 4.272006 10.13604 -9.632857 0.9009259 19.822 7.840283 4.106 -26.39695 8.700429 2.40757 -15.51524 10.93947 91.00034 25.12102 -26.05466 -0 0 3.908431 -13.17768 9.649844 7.371995 8.204635 -25.95234 -1.836621 -87.90172 19.56023 11.44638 0 0 -24.44545 14.38391 13.60954 -2.806522
2.397957 95.57272 49.72605 -2.88457 1.702784 2.36235 8.336302 -30.2883 2.701587 -0 9.698802 -0 -11.83562 -1.038247 -0.7175493 -3.833865 16.38243 -10.56835 -0 31.61051 -0 -2.066317 -16.24818 11.27788 -0.3229247 -2.213868 1.939829 4.039676 9.928664 -9.176921 1.087608 20.2999 7.734415 4.017462 -25.7136 8.828265 2.665432 -14.64443 10.81393 90.93597 25.92442 -25.55219 -0 0 3.415138 -13.29069 10.43273 7.30441 7.349252 -25.03151 -2.102745 -88.2263 20.51897 11.5904 0 0 -22.23117 13.40026 13.86167 -1.639925
2.36868 96.31472 55.99075 -2.971949 0.9014971 2.43431 8.52053 -26.29291 3.321231 -0 12.57664 -0 -12.43008 -2.845398 -1.228009 -3.233494 14.02178 -10.91636 -0 39.38889 -0 -3.687097 -12.69609 10.29659 0.2863831 -1.820083 1.941568 3.554885 9.692518 -8.45966 1.321891 20.84466 7.524842 3.948501 -24.72389 8.843136 3.193406 -13.94956 10.74648 90.4997 27.54362 -24.48353 -0 0 3.893291 -13.40487 11.44176 7.230955 6.421511 -23.73842 -2.365954 -88.86945 21.75587 12.47735 0 0 -19.6403 11.85313 14.19471 0.2502833
2.357368 97.54953 62.01818 -2.77064 0.1720908 2.344217 8.26 -20.81013 3.690493 -0 15.09977 -0 -12.44685 -5.588752 -1.579236 -2.760071 9.185184 -11.40987 -0 47.91436 -0 -5.781456 -8.481566 9.063808 0.9343736 -1.253922 2.606859 2.776215 9.479354 -7.506237 1.487892 21.34862 7.27305 3.936552 -23.61376 8.629896 3.937037 -13.79155 10.85669 89.60226 29.95552 -22.86258 -0 0 5.715229 -13.74922 12.6372 7.333933 5.534984 -22.26544 -2.553966 -89.93261 23.27623 14.64494 0 0 -17.4912 9.483358 14.45458 3.358573
2.438803 99.0692 67.59272 -2.117761 -0.2043653 2.150694 7.284762 -13.90816 3.416443 -0 15.93212 -0 -11.51803 -8.830792 -1.379511 -2.6631 0.9792077 -11.64619 -0 55.99802 -0 -8.202793 -4.397601 7.513574 1.379972 -0.4952546 4.259108 1.764818 9.3137 -6.415147 1.410605 21.67601 7.18237 4.052637 -22.84492 8.173828 4.718124 -14.57649 11.27821 88.19575 32.95351 -20.86055 -0 0 8.85509 -14.78205 14.03022 7.898427 4.880373 -21.03728 -2.526536 -91.51647 25.00208 18.54055 0 0 -17.00036 6.274756 14.3857 8.000281
2.682647 100.5017 72.66891 -0.997003 -0.1586499 1.992042 5.639602 -6.520975 2.299575 -0 14.06201 -0 -9.775642 -11.61071 -0.4138515 -2.894093 -9.66317 -11.20062 -0 61.24419 -0 -10.08324 -1.994349 6.176069 1.193989 0.379668 6.614465 0.7916324 9.152334 -5.366864 1.049413 21.81972 7.430983 4.329839 -22.77946 7.658158 5.30003 -16.20575 11.93853 86.29764 36.07989 -18.64871 -0 0 12.25351 -16.92317 15.68682 9.113726 4.628594 -20.47099 -2.202325 -93.3315 26.52941 23.31688 0 0 -18.59505 3.013013 13.87126 13.2003
3.05657 101.5221 77.44755 0.1361603 -0.3611266 1.92402 4.114847 -0.3797467 0.8463682 -0 10.72806 -0 -8.394795 -13.17859 0.5963218 -2.793027 -18.58617 -9.99681 -0 61.50286 -0 -10.29541 -2.190921 6.422321 0.2973631 1.119767 8.328791 0.2278904 8.989877 -4.581459 0.7461137 22.0881 7.681729 4.565086 -22.84343 7.276349 5.512908 -17.67433 12.40453 84.1286 38.33816 -16.13356 -0 0 14.15632 -19.62365 17.21279 10.65916 4.685717 -20.40654 -1.82506 -94.21349 27.26938 26.04823 0 0 -20.3456 1.070847 13.46063 16.35967
3.425493 102.081 82.1836 0.6925209 -1.61741 1.810902 3.607294 3.501706 0.0816539 -0 8.693628 -0 -8.29097 -13.71639 0.525872 -1.968659 -22.14935 -8.449497 -0 57.4746 -0 -8.89411 -3.866976 9.14998 -0.7070316 1.542155 8.370482 0.1478338 8.961574 -4.175063 0.8950884 22.73707 7.293612 4.434271 -21.9845 6.93871 5.265657 -18.12382 12.33437 82.31611 38.44606 -13.41778 -0 0 14.15741 -21.27193 17.50084 11.71239 4.777547 -20.24965 -1.749733 -93.39733 27.01209 24.78503 0 0 -19.81252 0.9373259 13.64217 15.9486
3.699806 102.2882 87.03358 0.7266046 -3.642368 1.470911 3.949162 5.998462 0.3959437 -0 8.707972 -0 -8.548136 -13.96045 -0.573631 -0.9440631 -21.78547 -7.08252 -0 51.39298 -0 -7.059982 -5.480738 13.27501 -1.33883 1.717477 7.406358 0.2590218 9.067777 -3.983747 1.424157 23.51674 6.271975 3.913853 -20.21042 6.559946 4.530013 -17.945 11.88504 81.31205 36.18271 -10.87829 -0 0 13.8313 -21.27064 16.0897 11.98555 4.821769 -19.66866 -1.908663 -91.94664 26.0259 21.4334 0 0 -17.18101 1.716049 13.79173 13.47319
3.910468 102.185 92.08975 0.5877932 -5.50665 0.8813495 4.414117 8.513148 1.293369 -0 9.663036 -0 -7.94297 -14.52617 -1.781207 -0.1075765 -21.05026 -5.99034 -0 43.97883 -0 -5.729639 -6.589152 17.03567 -1.562712 1.753922 6.552791 0.2885929 9.138045 -3.768095 1.978424 24.02909 5.157868 3.21618 -18.37095 6.241098 3.414033 -18.02189 11.37746 80.85323 32.52823 -8.520426 -0 0 14.70908 -20.59294 13.70045 12.07909 4.860064 -18.67456 -2.034143 -91.15206 24.84566 18.94504 0 0 -14.03753 2.228559 13.27123 11.28606
4.152323 101.7182 97.43116 0.4234256 -6.628745 0.1415535 4.597817 11.61214 2.167236 -0 10.59032 -0 -6.374295 -15.57378 -2.444923 0.5859558 -21.67251 -5.12115 -0 35.132 -0 -5.128622 -7.292809 19.60238 -1.481047 1.68979 6.214227 0.1813477 9.033723 -3.451451 2.314399 24.14802 4.343969 2.529152 -17.10406 6.045831 2.114113 -18.72921 10.95322 80.52997 28.58514 -6.19505 -0 0 17.00527 -20.11967 11.11651 12.52323 4.898428 -17.39155 -2.000845 -91.31755 23.81497 18.52139 0 0 -11.18846 2.045351 12.18615 10.37343
4.519013 100.8427 103.1485 0.2885838 -6.8743 -0.6387466 4.390881 15.18143 2.727387 -0 11.13933 -0 -4.369533 -16.79833 -2.371044 1.173237 -23.59688 -4.527331 -0 25.45757 -0 -5.087996 -7.68347 20.92283 -1.263379 1.512985 6.331343 0.01271955 8.728553 -3.082208 2.379083 23.92142 3.926895 2.006198 -16.61042 5.913502 0.8528844 -19.9077 10.59768 80.12123 25.10187 -3.927871 -0 0 20.10917 -20.02141 8.64391 13.37942 4.946127 -15.98784 -1.774929 -92.19597 22.87854 19.90633 0 0 -8.650785 1.447643 10.82246 10.47785
